<?xml version="1.0" encoding="UTF-8"?><svg id="Rockstar_Logo_and_Text" xmlns="http://www.w3.org/2000/svg" xmlns:xlink="http://www.w3.org/1999/xlink" viewBox="0 0 1002.39 290.68"><defs><style>.cls-1{stroke:#fff;stroke-width:15px;}.cls-1,.cls-2,.cls-3{fill:none;stroke-linecap:round;stroke-linejoin:round;}.cls-2{stroke-width:20px;}.cls-2,.cls-3{stroke:#231f20;}.cls-3{stroke-width:3px;}.cls-4{fill:url(#linear-gradient);}</style><linearGradient id="linear-gradient" x1="503.41" y1="19.65" x2="503.41" y2="272.18" gradientUnits="userSpaceOnUse"><stop offset="0" stop-color="#44719f"/><stop offset=".35" stop-color="#fffffd"/><stop offset=".35" stop-color="#091624"/><stop offset=".46" stop-color="#101e30"/><stop offset=".58" stop-color="#1c3664"/><stop offset="1" stop-color="#4185c5"/></linearGradient></defs><g id="Rockstar_Logo_Group"><path class="cls-2" d="M989.23,183.63l-69.26-68.12c6.73-10.07,10.32-21.92,10.32-34.04,0-33.85-27.44-61.31-61.29-61.31h-.14s-61.17,0-61.17,0v163.47h40.87v-81.35h.39l83.07,81.35h57.21ZM868.99,101.9h-20.44v-40.87h20.47c11.28,0,20.44,9.15,20.44,20.44s-9.13,20.42-20.4,20.44h-.06ZM750.54,70.77l.04.04,50.65-50.65v163.47h-40.87v-40.87l-.26-23.77-65.98,64.91h-58.44l114.84-113.14ZM595.58,61.3h-14.74l-47.11.09c-7.47,0-9.68,7.55-8.2,12.68,1.2,4.2,4.84,7.25,8.99,7.66l39.02,6.9c25.62,3.86,43.3,27.99,39.64,54.09-3.65,25.93-21.28,41.18-51.99,41.18h-22.73l-40.87-40.87h63.46c5.26,0,9.32-3.42,9.27-9.56-.04-5.32-3.34-10.02-8.55-10.87l-39.12-6.85s-.03,0-.04,0c-25.88-2.72-44.63-26.28-41.86-52.61,2.77-26.33,26.34-42.72,51.89-42.75.18,0,48.2.03,48.2.03h212.52l-40.87,40.87h-81.23l-.51,81.74-40.87,40.87V61.3h-34.31ZM426.22,20.43v23.16l23.16-23.16h54.49l-68.12,68.12,95.36,95.36h-54.49l-50.41-50.41v50.41h-41.55V61.49l41.55-41.06ZM350.7,61.3c.25,0,.51,0,.75,0h0s26.56-.28,26.56-.28l40.87-40.87-26.56.28h-41.58c-24.43,0-46.36,10.72-61.34,27.72-14.99-17.45-37.22-28.5-62.01-28.5-45.14,0-81.74,36.6-81.75,81.73v1.02c0,13.91,3.48,27.02,9.62,38.5l-25.39-25.39c6.72-10.06,10.32-21.92,10.32-34.04,0-33.85-27.44-61.31-61.29-61.31H17.59v163.47h40.86v-81.34h.39l169.9,169.89v-57.8l-39.85-39.85c11.47,6.14,24.57,9.61,38.48,9.61,24.67,0,46.79-10.93,61.79-28.21,14.98,17.15,37.01,27.98,61.56,27.98h.73l26.56-.27v-40.88l-26.56.29h0c-.24,0-.5,0-.75,0-22.57,0-40.87-18.31-40.87-40.87s18.31-40.87,40.87-40.87ZM78.96,101.89h-20.51v-40.87h20.44c11.2.12,20.22,9.24,20.22,20.44s-8.98,20.28-20.15,20.44ZM227.37,142.76c-22.57,0-40.86-18.31-40.86-40.87s18.31-40.87,40.87-40.86c22.57,0,40.87,18.31,40.87,40.87,0,22.57-18.31,40.87-40.88,40.86Z"/><path class="cls-1" d="M989.23,183.63l-69.26-68.12c6.73-10.07,10.32-21.92,10.32-34.04,0-33.85-27.44-61.31-61.29-61.31h-.14s-61.17,0-61.17,0v163.47h40.87v-81.35h.39l83.07,81.35h57.21ZM868.99,101.9h-20.44v-40.87h20.47c11.28,0,20.44,9.15,20.44,20.44s-9.13,20.42-20.4,20.44h-.06ZM750.54,70.77l.04.04,50.65-50.65v163.47h-40.87v-40.87l-.26-23.77-65.98,64.91h-58.44l114.84-113.14ZM595.58,61.3h-14.74l-47.11.09c-7.47,0-9.68,7.55-8.2,12.68,1.2,4.2,4.84,7.25,8.99,7.66l39.02,6.9c25.62,3.86,43.3,27.99,39.64,54.09-3.65,25.93-21.28,41.18-51.99,41.18h-22.73l-40.87-40.87h63.46c5.26,0,9.32-3.42,9.27-9.56-.04-5.32-3.34-10.02-8.55-10.87l-39.12-6.85s-.03,0-.04,0c-25.88-2.72-44.63-26.28-41.86-52.61,2.77-26.33,26.34-42.72,51.89-42.75.18,0,48.2.03,48.2.03h212.52l-40.87,40.87h-81.23l-.51,81.74-40.87,40.87V61.3h-34.31ZM426.22,20.43v23.16l23.16-23.16h54.49l-68.12,68.12,95.36,95.36h-54.49l-50.41-50.41v50.41h-41.55V61.49l41.55-41.06ZM350.7,61.3c.25,0,.51,0,.75,0h0s26.56-.28,26.56-.28l40.87-40.87-26.56.28h-41.58c-24.43,0-46.36,10.72-61.34,27.72-14.99-17.45-37.22-28.5-62.01-28.5-45.14,0-81.74,36.6-81.75,81.73v1.02c0,13.91,3.48,27.02,9.62,38.5l-25.39-25.39c6.72-10.06,10.32-21.92,10.32-34.04,0-33.85-27.44-61.31-61.29-61.31H17.59v163.47h40.86v-81.34h.39l169.9,169.89v-57.8l-39.85-39.85c11.47,6.14,24.57,9.61,38.48,9.61,24.67,0,46.79-10.93,61.79-28.21,14.98,17.15,37.01,27.98,61.56,27.98h.73l26.56-.27v-40.88l-26.56.29h0c-.24,0-.5,0-.75,0-22.57,0-40.87-18.31-40.87-40.87s18.31-40.87,40.87-40.87ZM78.96,101.89h-20.51v-40.87h20.44c11.2.12,20.22,9.24,20.22,20.44s-8.98,20.28-20.15,20.44ZM227.37,142.76c-22.57,0-40.86-18.31-40.86-40.87s18.31-40.87,40.87-40.86c22.57,0,40.87,18.31,40.87,40.87,0,22.57-18.31,40.87-40.88,40.86Z"/><path class="cls-4" d="M989.23,183.63l-69.26-68.12c6.73-10.07,10.32-21.92,10.32-34.04,0-33.85-27.44-61.31-61.29-61.31h-.14s-61.17,0-61.17,0v163.47h40.87v-81.35h.39l83.07,81.35h57.21ZM868.99,101.9h-20.44v-40.87h20.47c11.28,0,20.44,9.15,20.44,20.44s-9.13,20.42-20.4,20.44h-.06ZM750.54,70.77l.04.04,50.65-50.65v163.47h-40.87v-40.87l-.26-23.77-65.98,64.91h-58.44l114.84-113.14ZM595.58,61.3h-14.74l-47.11.09c-7.47,0-9.68,7.55-8.2,12.68,1.2,4.2,4.84,7.25,8.99,7.66l39.02,6.9c25.62,3.86,43.3,27.99,39.64,54.09-3.65,25.93-21.28,41.18-51.99,41.18h-22.73l-40.87-40.87h63.46c5.26,0,9.32-3.42,9.27-9.56-.04-5.32-3.34-10.02-8.55-10.87l-39.12-6.85s-.03,0-.04,0c-25.88-2.72-44.63-26.28-41.86-52.61,2.77-26.33,26.34-42.72,51.89-42.75.18,0,48.2.03,48.2.03h212.52l-40.87,40.87h-81.23l-.51,81.74-40.87,40.87V61.3h-34.31ZM426.22,20.43v23.16l23.16-23.16h54.49l-68.12,68.12,95.36,95.36h-54.49l-50.41-50.41v50.41h-41.55V61.49l41.55-41.06ZM350.7,61.3c.25,0,.51,0,.75,0h0s26.56-.28,26.56-.28l40.87-40.87-26.56.28h-41.58c-24.43,0-46.36,10.72-61.34,27.72-14.99-17.45-37.22-28.5-62.01-28.5-45.14,0-81.74,36.6-81.75,81.73v1.02c0,13.91,3.48,27.02,9.62,38.5l-25.39-25.39c6.72-10.06,10.32-21.92,10.32-34.04,0-33.85-27.44-61.31-61.29-61.31H17.59v163.47h40.86v-81.34h.39l169.9,169.89v-57.8l-39.85-39.85c11.47,6.14,24.57,9.61,38.48,9.61,24.67,0,46.79-10.93,61.79-28.21,14.98,17.15,37.01,27.98,61.56,27.98h.73l26.56-.27v-40.88l-26.56.29h0c-.24,0-.5,0-.75,0-22.57,0-40.87-18.31-40.87-40.87s18.31-40.87,40.87-40.87ZM78.96,101.89h-20.51v-40.87h20.44c11.2.12,20.22,9.24,20.22,20.44s-8.98,20.28-20.15,20.44ZM227.37,142.76c-22.57,0-40.86-18.31-40.86-40.87s18.31-40.87,40.87-40.86c22.57,0,40.87,18.31,40.87,40.87,0,22.57-18.31,40.87-40.88,40.86Z"/><path class="cls-3" d="M989.23,183.63l-69.26-68.12c6.73-10.07,10.32-21.92,10.32-34.04,0-33.85-27.44-61.31-61.29-61.31h-.14s-61.17,0-61.17,0v163.47h40.87v-81.35h.39l83.07,81.35h57.21ZM868.99,101.9h-20.44v-40.87h20.47c11.28,0,20.44,9.15,20.44,20.44s-9.13,20.42-20.4,20.44h-.06ZM750.54,70.77l.04.04,50.65-50.65v163.47h-40.87v-40.87l-.26-23.77-65.98,64.91h-58.44l114.84-113.14ZM595.58,61.3h-14.74l-47.11.09c-7.47,0-9.68,7.55-8.2,12.68,1.2,4.2,4.84,7.25,8.99,7.66l39.02,6.9c25.62,3.86,43.3,27.99,39.64,54.09-3.65,25.93-21.28,41.18-51.99,41.18h-22.73l-40.87-40.87h63.46c5.26,0,9.32-3.42,9.27-9.56-.04-5.32-3.34-10.02-8.55-10.87l-39.12-6.85s-.03,0-.04,0c-25.88-2.72-44.63-26.28-41.86-52.61,2.77-26.33,26.34-42.72,51.89-42.75.18,0,48.2.03,48.2.03h212.52l-40.87,40.87h-81.23l-.51,81.74-40.87,40.87V61.3h-34.31ZM426.22,20.43v23.16l23.16-23.16h54.49l-68.12,68.12,95.36,95.36h-54.49l-50.41-50.41v50.41h-41.55V61.49l41.55-41.06ZM350.7,61.3c.25,0,.51,0,.75,0h0s26.56-.28,26.56-.28l40.87-40.87-26.56.28h-41.58c-24.43,0-46.36,10.72-61.34,27.72-14.99-17.45-37.22-28.5-62.01-28.5-45.14,0-81.74,36.6-81.75,81.73v1.02c0,13.91,3.48,27.02,9.62,38.5l-25.39-25.39c6.72-10.06,10.32-21.92,10.32-34.04,0-33.85-27.44-61.31-61.29-61.31H17.59v163.47h40.86v-81.34h.39l169.9,169.89v-57.8l-39.85-39.85c11.47,6.14,24.57,9.61,38.48,9.61,24.67,0,46.79-10.93,61.79-28.21,14.98,17.15,37.01,27.98,61.56,27.98h.73l26.56-.27v-40.88l-26.56.29h0c-.24,0-.5,0-.75,0-22.57,0-40.87-18.31-40.87-40.87s18.31-40.87,40.87-40.87ZM78.96,101.89h-20.51v-40.87h20.44c11.2.12,20.22,9.24,20.22,20.44s-8.98,20.28-20.15,20.44ZM227.37,142.76c-22.57,0-40.86-18.31-40.86-40.87s18.31-40.87,40.87-40.86c22.57,0,40.87,18.31,40.87,40.87,0,22.57-18.31,40.87-40.88,40.86Z"/></g></svg>